<svg width="23" height="24" viewBox="0 0 23 24" fill="none" xmlns="http://www.w3.org/2000/svg">
<path d="M17.2503 9.12496H19.167C19.6753 9.12496 20.1628 9.32689 20.5223 9.68634C20.8817 10.0458 21.0837 10.5333 21.0837 11.0416V21.5833L17.2503 17.75H11.5003C10.992 17.75 10.5045 17.548 10.145 17.1886C9.78559 16.8291 9.58366 16.3416 9.58366 15.8333V14.875M13.417 9.12496C13.417 9.63329 13.2151 10.1208 12.8556 10.4802C12.4962 10.8397 12.0087 11.0416 11.5003 11.0416H5.75033L1.91699 14.875V4.33329C1.91699 3.27913 2.77949 2.41663 3.83366 2.41663H11.5003C12.0087 2.41663 12.4962 2.61856 12.8556 2.978C13.2151 3.33745 13.417 3.82496 13.417 4.33329V9.12496Z" stroke="white" stroke-width="1.5" stroke-linecap="round" stroke-linejoin="round"/>
</svg>
